# xmcd
#
# Track frame offsets:
# 150
# 18077
# 33944
# 49686
# 67056
# 81148
# 97187
# 119799
# 136236
# 150256
# 163085
# 178535
# 192232
# 213274
# 230406
# 248513
# 263902
# 277085
# 291700
# 305251
# 319282
# 332777
#
# Disc length: 4620 seconds
#
#
# Revision: 0
# Processed by: cddbd v1.5.1PL2 Copyright (c) Steve Scherf et al.
# Submitted via: FreeRIP 2.943 
#
DISCID=42120a16
DTITLE=Temerarios - Temerarios
DYEAR=1900
DGENRE=Ballad
TTITLE0=Por Tu Maldito Amor
TTITLE1=Dimelo
TTITLE2=Acepta Mi Error
TTITLE3=Faltas Tu
TTITLE4=Una Lagrima Mas
TTITLE5=Tu Me Vas A Llorar
TTITLE6=La Mujer De Los Dos
TTITLE7=Si Tu Carino No Estas
TTITLE8=La Culpa No Tengo Yo
TTITLE9=No Dejo De Amarte
TTITLE10=Tu Infame Engano
TTITLE11=Ven Porque Te Necesito
TTITLE12=Te Hice Mal
TTITLE13=Comer A Besos
TTITLE14=Caminando Voy "Gracias"
TTITLE15=Que De Raro Tiene
TTITLE16=La Diferncia
TTITLE17=Renunciacion
TTITLE18=Idos De La Mente
TTITLE19=Lloraras
TTITLE20=Las Llaves De Mi Alma
TTITLE21=Sombras
EXTD=
EXTT0=
EXTT1=
EXTT2=
EXTT3=
EXTT4=
EXTT5=
EXTT6=
EXTT7=
EXTT8=
EXTT9=
EXTT10=
EXTT11=
EXTT12=
EXTT13=
EXTT14=
EXTT15=
EXTT16=
EXTT17=
EXTT18=
EXTT19=
EXTT20=
EXTT21=
PLAYORDER=
